<svg xmlns="http://www.w3.org/2000/svg" width="136.79" height="40" viewBox="0 0 136.79 40"><g id="Layer_2" data-name="Layer 2"><g id="Artwork"><polygon points="112.57 39.99 89.52 0.06 59.4 0.06 65.44 10.53 83.47 10.53 100.48 39.99 112.57 39.99" fill="#080b15"/><polygon points="82.33 29.5 64.3 29.5 47.29 0 35.2 0 58.25 39.98 88.38 39.98 82.33 29.5" fill="#080b15"/><path d="M107.65,10.53H120.4A5.21,5.21,0,0,1,120.58,21h-6.93l6.1,10.49L124.64,40h12.15L130,28.17A15.68,15.68,0,0,0,120.4.06H101.6Z" fill="#080b15"/><polygon points="45.99 40 23.11 0 16.96 10.65 33.9 40 45.99 40" fill="#080b15"/><polygon points="12.09 39.99 16.96 31.58 10.91 21.1 0 39.99 12.09 39.99" fill="#080b15"/></g></g></svg>